<?xml version="1.0" encoding="UTF-8" standalone="no"?><svg xmlns="http://www.w3.org/2000/svg" xmlns:xlink="http://www.w3.org/1999/xlink" contentScriptType="application/ecmascript" contentStyleType="text/css" height="565px" preserveAspectRatio="none" style="width:1483px;height:565px;background:#FFFFFF;" version="1.1" viewBox="0 0 1483 565" width="1483px" zoomAndPan="magnify"><defs><filter height="300%" id="ffiphwp3kaqb3" width="300%" x="-1" y="-1"><feGaussianBlur result="blurOut" stdDeviation="2.0"/><feColorMatrix in="blurOut" result="blurOut2" type="matrix" values="0 0 0 0 0 0 0 0 0 0 0 0 0 0 0 0 0 0 .4 0"/><feOffset dx="4.0" dy="4.0" in="blurOut2" result="blurOut3"/><feBlend in="SourceGraphic" in2="blurOut3" mode="normal"/></filter></defs><g><!--MD5=[3d7c4c4fbf3976bc7dbd90b5a5758b99]
cluster com.example.byblosMobile--><polygon fill="#FFFFFF" filter="url(#ffiphwp3kaqb3)" points="16,140.794,209,140.794,216,163.5939,1466,163.5939,1466,558.794,16,558.794,16,140.794" style="stroke:#000000;stroke-width:1.5;"/><line style="stroke:#000000;stroke-width:1.5;" x1="16" x2="216" y1="163.5939" y2="163.5939"/><text fill="#000000" font-family="sans-serif" font-size="14" font-weight="bold" lengthAdjust="spacing" textLength="187" x="20" y="155.7999">com.example.byblosmobile</text><!--MD5=[5a11439e6a9c928fb0d5ec822813d7c6]
cluster androidx.appcompat.app--><polygon fill="#FFFFFF" filter="url(#ffiphwp3kaqb3)" points="479,6.294,657,6.294,664,29.0939,667,29.0939,667,105.294,479,105.294,479,6.294" style="stroke:#000000;stroke-width:1.5;"/><line style="stroke:#000000;stroke-width:1.5;" x1="479" x2="664" y1="29.0939" y2="29.0939"/><text fill="#000000" font-family="sans-serif" font-size="14" font-weight="bold" lengthAdjust="spacing" textLength="172" x="483" y="21.2999">androidx.appcompat.app</text><!--MD5=[098193dd85dd01651c2f25e6abc634ab]
class com.example.byblosMobile.LoginActivity--><rect codeLine="9" fill="#FEFECE" filter="url(#ffiphwp3kaqb3)" height="113.9995" id="com.example.byblosmobile.LoginActivity" style="stroke:#A80036;stroke-width:1.5;" width="183" x="850.5" y="188.794"/><ellipse cx="903.25" cy="204.794" fill="#ADD1B2" rx="11" ry="11" style="stroke:#A80036;stroke-width:1.0;"/><path d="M898.25,205.9502 C898.25,208.4502 900.3906,210.2627 903.3125,210.2627 C904.5469,210.2627 905.7188,209.9659 906.4688,209.4502 C907.0781,209.0284 907.4063,208.6065 907.4063,208.2002 C907.4063,207.7315 906.9844,207.3252 906.4844,207.3252 C906.25,207.3252 906.0313,207.4034 905.8281,207.6065 C905.3906,208.044 905.3906,208.044 905.2188,208.1377 C904.7656,208.3721 904.125,208.5127 903.3594,208.5127 C901.3594,208.5127 900.0781,207.4971 900.0781,205.919 L900.0781,204.8721 C900.0781,203.169 901.2969,201.9659 903,201.9659 C903.5781,201.9659 904.1563,202.1065 904.625,202.3565 C905.0938,202.6221 905.2656,202.8096 905.3281,203.169 C905.4531,203.8409 905.7031,204.0909 906.2344,204.0909 C906.5156,204.0909 906.7969,203.9502 906.9844,203.7315 C907.1094,203.5596 907.1563,203.3877 907.1563,202.9502 L907.1563,201.5909 C907.1563,201.169 907.1406,201.0284 907.0156,200.8565 C906.8438,200.6065 906.5625,200.4502 906.2344,200.4502 C905.9219,200.4502 905.7188,200.5596 905.5,200.8252 C904.3281,200.3252 903.8906,200.2159 902.9375,200.2159 C900.2656,200.2159 898.25,202.2315 898.25,204.8565 L898.25,205.9502 Z " fill="#000000"/><text fill="#000000" font-family="sans-serif" font-size="12" lengthAdjust="spacing" textLength="69" x="923.75" y="208.742">LoginActivity</text><line style="stroke:#A80036;stroke-width:1.5;" x1="851.5" x2="1032.5" y1="220.794" y2="220.794"/><rect fill="none" height="6" style="stroke:#C82930;stroke-width:1.0;" width="6" x="858.5" y="228.794"/><text fill="#000000" font-family="sans-serif" font-size="11" lengthAdjust="spacing" textLength="99" x="870.5" y="235.0129">FirebaseAuth mAuth</text><rect fill="none" height="6" style="stroke:#C82930;stroke-width:1.0;" width="6" x="858.5" y="241.9939"/><text fill="#000000" font-family="sans-serif" font-size="11" lengthAdjust="spacing" textLength="157" x="870.5" y="248.2128">DatabaseReference mDatabase</text><line style="stroke:#A80036;stroke-width:1.5;" x1="851.5" x2="1032.5" y1="255.1938" y2="255.1938"/><polygon fill="#FFFF44" points="861.5,261.1938,865.5,265.1938,861.5,269.1938,857.5,265.1938" style="stroke:#B38D22;stroke-width:1.0;"/><text fill="#000000" font-family="sans-serif" font-size="11" lengthAdjust="spacing" textLength="109" x="870.5" y="269.4127">void onCreate(Bundle)</text><rect fill="#F24D5C" height="6" style="stroke:#C82930;stroke-width:1.0;" width="6" x="858.5" y="276.3937"/><text fill="#000000" font-family="sans-serif" font-size="11" lengthAdjust="spacing" textLength="143" x="870.5" y="282.6126">void signIn(EditText,EditText)</text><ellipse cx="861.5" cy="292.5936" fill="#84BE84" rx="3" ry="3" style="stroke:#038048;stroke-width:1.0;"/><text fill="#000000" font-family="sans-serif" font-size="11" lengthAdjust="spacing" textLength="112" x="870.5" y="295.8125">void login(String,String)</text><!--MD5=[b55cf72f668904ffb245a44790a897a2]
class com.example.byblosMobile.Users.AccountInfo--><rect codeLine="16" fill="#FEFECE" filter="url(#ffiphwp3kaqb3)" height="166.7991" id="com.example.byblosmobile.Users.AccountInfo" style="stroke:#A80036;stroke-width:1.5;" width="133" x="661.5" y="375.794"/><ellipse cx="701.25" cy="391.794" fill="#ADD1B2" rx="11" ry="11" style="stroke:#A80036;stroke-width:1.0;"/><path d="M696.25,392.9502 C696.25,395.4502 698.3906,397.2627 701.3125,397.2627 C702.5469,397.2627 703.7188,396.9659 704.4688,396.4502 C705.0781,396.0284 705.4063,395.6065 705.4063,395.2002 C705.4063,394.7315 704.9844,394.3252 704.4844,394.3252 C704.25,394.3252 704.0313,394.4034 703.8281,394.6065 C703.3906,395.044 703.3906,395.044 703.2188,395.1377 C702.7656,395.3721 702.125,395.5127 701.3594,395.5127 C699.3594,395.5127 698.0781,394.4971 698.0781,392.919 L698.0781,391.8721 C698.0781,390.169 699.2969,388.9659 701,388.9659 C701.5781,388.9659 702.1563,389.1065 702.625,389.3565 C703.0938,389.6221 703.2656,389.8096 703.3281,390.169 C703.4531,390.8409 703.7031,391.0909 704.2344,391.0909 C704.5156,391.0909 704.7969,390.9502 704.9844,390.7315 C705.1094,390.5596 705.1563,390.3877 705.1563,389.9502 L705.1563,388.5909 C705.1563,388.169 705.1406,388.0284 705.0156,387.8565 C704.8438,387.6065 704.5625,387.4502 704.2344,387.4502 C703.9219,387.4502 703.7188,387.5596 703.5,387.8252 C702.3281,387.3252 701.8906,387.2159 700.9375,387.2159 C698.2656,387.2159 696.25,389.2315 696.25,391.8565 L696.25,392.9502 Z " fill="#000000"/><text fill="#000000" font-family="sans-serif" font-size="12" lengthAdjust="spacing" textLength="46" x="720.75" y="395.742">UserInfo</text><line style="stroke:#A80036;stroke-width:1.5;" x1="662.5" x2="793.5" y1="407.794" y2="407.794"/><polygon fill="none" points="672.5,413.794,676.5,417.794,672.5,421.794,668.5,417.794" style="stroke:#B38D22;stroke-width:1.0;"/><text fill="#000000" font-family="sans-serif" font-size="11" lengthAdjust="spacing" textLength="82" x="681.5" y="422.0129">String userName</text><line style="stroke:#A80036;stroke-width:1.5;" x1="662.5" x2="793.5" y1="428.9939" y2="428.9939"/><ellipse cx="672.5" cy="439.9939" fill="#84BE84" rx="3" ry="3" style="stroke:#038048;stroke-width:1.0;"/><text fill="#000000" font-family="sans-serif" font-size="11" lengthAdjust="spacing" textLength="107" x="681.5" y="443.2128">String getUserName()</text><ellipse cx="672.5" cy="453.1938" fill="#84BE84" rx="3" ry="3" style="stroke:#038048;stroke-width:1.0;"/><text fill="#000000" font-family="sans-serif" font-size="11" lengthAdjust="spacing" textLength="105" x="681.5" y="456.4127">String getFirstName()</text><ellipse cx="672.5" cy="466.3937" fill="#84BE84" rx="3" ry="3" style="stroke:#038048;stroke-width:1.0;"/><text fill="#000000" font-family="sans-serif" font-size="11" lengthAdjust="spacing" textLength="104" x="681.5" y="469.6126">String getLastName()</text><ellipse cx="672.5" cy="479.5936" fill="#84BE84" rx="3" ry="3" style="stroke:#038048;stroke-width:1.0;"/><text fill="#000000" font-family="sans-serif" font-size="11" lengthAdjust="spacing" textLength="80" x="681.5" y="482.8125">String getEmail()</text><ellipse cx="672.5" cy="492.7935" fill="#84BE84" rx="3" ry="3" style="stroke:#038048;stroke-width:1.0;"/><text fill="#000000" font-family="sans-serif" font-size="11" lengthAdjust="spacing" textLength="103" x="681.5" y="496.0124">String getPassword()</text><ellipse cx="672.5" cy="505.9934" fill="#84BE84" rx="3" ry="3" style="stroke:#038048;stroke-width:1.0;"/><text fill="#000000" font-family="sans-serif" font-size="11" lengthAdjust="spacing" textLength="103" x="681.5" y="509.2123">String getUserType()</text><ellipse cx="672.5" cy="519.1933" fill="#84BE84" rx="3" ry="3" style="stroke:#038048;stroke-width:1.0;"/><text fill="#000000" font-family="sans-serif" font-size="11" lengthAdjust="spacing" textLength="97" x="681.5" y="522.4122">void copy(UserInfo)</text><ellipse cx="672.5" cy="532.3932" fill="#84BE84" rx="3" ry="3" style="stroke:#038048;stroke-width:1.0;"/><text fill="#000000" font-family="sans-serif" font-size="11" lengthAdjust="spacing" textLength="76" x="681.5" y="535.6121">String toString()</text><!--MD5=[434f5b7f84b5cad0c3a54d8dc254f275]
class com.example.byblosMobile.WelcomePageActivity--><rect codeLine="27" fill="#FEFECE" filter="url(#ffiphwp3kaqb3)" height="127.1994" id="com.example.byblosmobile.WelcomePageActivity" style="stroke:#A80036;stroke-width:1.5;" width="174" x="641" y="182.294"/><ellipse cx="666.8" cy="198.294" fill="#ADD1B2" rx="11" ry="11" style="stroke:#A80036;stroke-width:1.0;"/><path d="M661.8,199.4502 C661.8,201.9502 663.9406,203.7627 666.8625,203.7627 C668.0969,203.7627 669.2688,203.4659 670.0188,202.9502 C670.6281,202.5284 670.9563,202.1065 670.9563,201.7002 C670.9563,201.2315 670.5344,200.8252 670.0344,200.8252 C669.8,200.8252 669.5813,200.9034 669.3781,201.1065 C668.9406,201.544 668.9406,201.544 668.7688,201.6377 C668.3156,201.8721 667.675,202.0127 666.9094,202.0127 C664.9094,202.0127 663.6281,200.9971 663.6281,199.419 L663.6281,198.3721 C663.6281,196.669 664.8469,195.4659 666.55,195.4659 C667.1281,195.4659 667.7063,195.6065 668.175,195.8565 C668.6438,196.1221 668.8156,196.3096 668.8781,196.669 C669.0031,197.3409 669.2531,197.5909 669.7844,197.5909 C670.0656,197.5909 670.3469,197.4502 670.5344,197.2315 C670.6594,197.0596 670.7063,196.8877 670.7063,196.4502 L670.7063,195.0909 C670.7063,194.669 670.6906,194.5284 670.5656,194.3565 C670.3938,194.1065 670.1125,193.9502 669.7844,193.9502 C669.4719,193.9502 669.2688,194.0596 669.05,194.3252 C667.8781,193.8252 667.4406,193.7159 666.4875,193.7159 C663.8156,193.7159 661.8,195.7315 661.8,198.3565 L661.8,199.4502 Z " fill="#000000"/><text fill="#000000" font-family="sans-serif" font-size="12" lengthAdjust="spacing" textLength="118" x="683.2" y="202.242">WelcomePageActivity</text><line style="stroke:#A80036;stroke-width:1.5;" x1="642" x2="814" y1="214.294" y2="214.294"/><rect fill="none" height="6" style="stroke:#C82930;stroke-width:1.0;" width="6" x="649" y="222.294"/><text fill="#000000" font-family="sans-serif" font-size="11" lengthAdjust="spacing" textLength="113" x="661" y="228.5129">TextView welcomeText</text><rect fill="none" height="6" style="stroke:#C82930;stroke-width:1.0;" width="6" x="649" y="235.4939"/><text fill="#000000" font-family="sans-serif" font-size="11" lengthAdjust="spacing" textLength="80" x="661" y="241.7128">String username</text><rect fill="none" height="6" style="stroke:#C82930;stroke-width:1.0;" width="6" x="649" y="248.6938"/><text fill="#000000" font-family="sans-serif" font-size="11" lengthAdjust="spacing" textLength="78" x="661" y="254.9127">String userType</text><rect fill="none" height="6" style="stroke:#C82930;stroke-width:1.0;" width="6" x="649" y="261.8937"/><text fill="#000000" font-family="sans-serif" font-size="11" lengthAdjust="spacing" textLength="127" x="661" y="268.1126">MyDatabase myDatabase</text><line style="stroke:#A80036;stroke-width:1.5;" x1="642" x2="814" y1="275.0936" y2="275.0936"/><ellipse cx="652" cy="286.0936" fill="#84BE84" rx="3" ry="3" style="stroke:#038048;stroke-width:1.0;"/><text fill="#000000" font-family="sans-serif" font-size="11" lengthAdjust="spacing" textLength="148" x="661" y="289.3125">void updateUserInfo(UserInfo)</text><polygon fill="#FFFF44" points="652,294.2935,656,298.2935,652,302.2935,648,298.2935" style="stroke:#B38D22;stroke-width:1.0;"/><text fill="#000000" font-family="sans-serif" font-size="11" lengthAdjust="spacing" textLength="109" x="661" y="302.5124">void onCreate(Bundle)</text><!--MD5=[4586546373cce3dafdf1858ec067ca23]
class com.example.byblosMobile.PasswordManager--><rect codeLine="35" fill="#FEFECE" filter="url(#ffiphwp3kaqb3)" height="100.7996" id="com.example.byblosmobile.PasswordManager" style="stroke:#A80036;stroke-width:1.5;" width="135" x="1068.5" y="195.294"/><ellipse cx="1083.5" cy="211.294" fill="#ADD1B2" rx="11" ry="11" style="stroke:#A80036;stroke-width:1.0;"/><path d="M1078.5,212.4502 C1078.5,214.9502 1080.6406,216.7627 1083.5625,216.7627 C1084.7969,216.7627 1085.9688,216.4659 1086.7188,215.9502 C1087.3281,215.5284 1087.6563,215.1065 1087.6563,214.7002 C1087.6563,214.2315 1087.2344,213.8252 1086.7344,213.8252 C1086.5,213.8252 1086.2813,213.9034 1086.0781,214.1065 C1085.6406,214.544 1085.6406,214.544 1085.4688,214.6377 C1085.0156,214.8721 1084.375,215.0127 1083.6094,215.0127 C1081.6094,215.0127 1080.3281,213.9971 1080.3281,212.419 L1080.3281,211.3721 C1080.3281,209.669 1081.5469,208.4659 1083.25,208.4659 C1083.8281,208.4659 1084.4063,208.6065 1084.875,208.8565 C1085.3438,209.1221 1085.5156,209.3096 1085.5781,209.669 C1085.7031,210.3409 1085.9531,210.5909 1086.4844,210.5909 C1086.7656,210.5909 1087.0469,210.4502 1087.2344,210.2315 C1087.3594,210.0596 1087.4063,209.8877 1087.4063,209.4502 L1087.4063,208.0909 C1087.4063,207.669 1087.3906,207.5284 1087.2656,207.3565 C1087.0938,207.1065 1086.8125,206.9502 1086.4844,206.9502 C1086.1719,206.9502 1085.9688,207.0596 1085.75,207.3252 C1084.5781,206.8252 1084.1406,206.7159 1083.1875,206.7159 C1080.5156,206.7159 1078.5,208.7315 1078.5,211.3565 L1078.5,212.4502 Z " fill="#000000"/><text fill="#000000" font-family="sans-serif" font-size="12" lengthAdjust="spacing" textLength="103" x="1097.5" y="215.242">PasswordManager</text><line style="stroke:#A80036;stroke-width:1.5;" x1="1069.5" x2="1202.5" y1="227.294" y2="227.294"/><rect fill="none" height="6" style="stroke:#C82930;stroke-width:1.0;" width="6" x="1076.5" y="235.294"/><text fill="#000000" font-family="sans-serif" font-size="11" lengthAdjust="spacing" text-decoration="underline" textLength="102" x="1088.5" y="241.5129">String SECRET_KEY</text><rect fill="none" height="6" style="stroke:#C82930;stroke-width:1.0;" width="6" x="1076.5" y="248.4939"/><text fill="#000000" font-family="sans-serif" font-size="11" lengthAdjust="spacing" text-decoration="underline" textLength="58" x="1088.5" y="254.7128">String SALT</text><line style="stroke:#A80036;stroke-width:1.5;" x1="1069.5" x2="1202.5" y1="261.6938" y2="261.6938"/><ellipse cx="1079.5" cy="272.6938" fill="#84BE84" rx="3" ry="3" style="stroke:#038048;stroke-width:1.0;"/><text fill="#000000" font-family="sans-serif" font-size="11" lengthAdjust="spacing" text-decoration="underline" textLength="104" x="1088.5" y="275.9127">String encrypt(String)</text><ellipse cx="1079.5" cy="285.8937" fill="#84BE84" rx="3" ry="3" style="stroke:#038048;stroke-width:1.0;"/><text fill="#000000" font-family="sans-serif" font-size="11" lengthAdjust="spacing" text-decoration="underline" textLength="104" x="1088.5" y="289.1126">String decrypt(String)</text><!--MD5=[60eca5c0e54dc3cce35495e1771e8584]
class com.example.byblosMobile.DB.MyDatabase--><rect codeLine="41" fill="#FEFECE" filter="url(#ffiphwp3kaqb3)" height="127.1994" id="com.example.byblosmobile.DB.MyDatabase" style="stroke:#A80036;stroke-width:1.5;" width="211" x="1238.5" y="182.294"/><ellipse cx="1305.25" cy="198.294" fill="#ADD1B2" rx="11" ry="11" style="stroke:#A80036;stroke-width:1.0;"/><path d="M1300.25,199.4502 C1300.25,201.9502 1302.3906,203.7627 1305.3125,203.7627 C1306.5469,203.7627 1307.7188,203.4659 1308.4688,202.9502 C1309.0781,202.5284 1309.4063,202.1065 1309.4063,201.7002 C1309.4063,201.2315 1308.9844,200.8252 1308.4844,200.8252 C1308.25,200.8252 1308.0313,200.9034 1307.8281,201.1065 C1307.3906,201.544 1307.3906,201.544 1307.2188,201.6377 C1306.7656,201.8721 1306.125,202.0127 1305.3594,202.0127 C1303.3594,202.0127 1302.0781,200.9971 1302.0781,199.419 L1302.0781,198.3721 C1302.0781,196.669 1303.2969,195.4659 1305,195.4659 C1305.5781,195.4659 1306.1563,195.6065 1306.625,195.8565 C1307.0938,196.1221 1307.2656,196.3096 1307.3281,196.669 C1307.4531,197.3409 1307.7031,197.5909 1308.2344,197.5909 C1308.5156,197.5909 1308.7969,197.4502 1308.9844,197.2315 C1309.1094,197.0596 1309.1563,196.8877 1309.1563,196.4502 L1309.1563,195.0909 C1309.1563,194.669 1309.1406,194.5284 1309.0156,194.3565 C1308.8438,194.1065 1308.5625,193.9502 1308.2344,193.9502 C1307.9219,193.9502 1307.7188,194.0596 1307.5,194.3252 C1306.3281,193.8252 1305.8906,193.7159 1304.9375,193.7159 C1302.2656,193.7159 1300.25,195.7315 1300.25,198.3565 L1300.25,199.4502 Z " fill="#000000"/><text fill="#000000" font-family="sans-serif" font-size="12" lengthAdjust="spacing" textLength="69" x="1325.75" y="202.242">MyDatabase</text><line style="stroke:#A80036;stroke-width:1.5;" x1="1239.5" x2="1448.5" y1="214.294" y2="214.294"/><rect fill="none" height="6" style="stroke:#C82930;stroke-width:1.0;" width="6" x="1246.5" y="222.294"/><text fill="#000000" font-family="sans-serif" font-size="11" lengthAdjust="spacing" textLength="65" x="1258.5" y="228.5129">String dbPath</text><rect fill="none" height="6" style="stroke:#C82930;stroke-width:1.0;" width="6" x="1246.5" y="235.4939"/><text fill="#000000" font-family="sans-serif" font-size="11" lengthAdjust="spacing" textLength="105" x="1258.5" y="241.7128">FirebaseDatabase db</text><rect fill="none" height="6" style="stroke:#C82930;stroke-width:1.0;" width="6" x="1246.5" y="248.6938"/><text fill="#000000" font-family="sans-serif" font-size="11" lengthAdjust="spacing" textLength="130" x="1258.5" y="254.9127">DatabaseReference dbRef</text><line style="stroke:#A80036;stroke-width:1.5;" x1="1239.5" x2="1448.5" y1="261.8937" y2="261.8937"/><ellipse cx="1249.5" cy="272.8937" fill="#84BE84" rx="3" ry="3" style="stroke:#038048;stroke-width:1.0;"/><text fill="#000000" font-family="sans-serif" font-size="11" lengthAdjust="spacing" textLength="155" x="1258.5" y="276.1126">DatabaseReference getDbRef()</text><ellipse cx="1249.5" cy="286.0936" fill="#84BE84" rx="3" ry="3" style="stroke:#038048;stroke-width:1.0;"/><text fill="#000000" font-family="sans-serif" font-size="11" lengthAdjust="spacing" textLength="125" x="1258.5" y="289.3125">void setReference(String)</text><ellipse cx="1249.5" cy="299.2935" fill="#84BE84" rx="3" ry="3" style="stroke:#038048;stroke-width:1.0;"/><text fill="#000000" font-family="sans-serif" font-size="11" lengthAdjust="spacing" textLength="185" x="1258.5" y="302.5124">void addUser(FirebaseUser,UserInfo)</text><!--MD5=[0238d379b7fff3ea3bc6829f6a2b9f35]
class com.example.byblosMobile.SignupActivity--><rect codeLine="49" fill="#FEFECE" filter="url(#ffiphwp3kaqb3)" height="140.3993" id="com.example.byblosmobile.SignupActivity" style="stroke:#A80036;stroke-width:1.5;" width="380" x="226" y="175.794"/><ellipse cx="373.25" cy="191.794" fill="#ADD1B2" rx="11" ry="11" style="stroke:#A80036;stroke-width:1.0;"/><path d="M368.25,192.9502 C368.25,195.4502 370.3906,197.2627 373.3125,197.2627 C374.5469,197.2627 375.7188,196.9659 376.4688,196.4502 C377.0781,196.0284 377.4063,195.6065 377.4063,195.2002 C377.4063,194.7315 376.9844,194.3252 376.4844,194.3252 C376.25,194.3252 376.0313,194.4034 375.8281,194.6065 C375.3906,195.044 375.3906,195.044 375.2188,195.1377 C374.7656,195.3721 374.125,195.5127 373.3594,195.5127 C371.3594,195.5127 370.0781,194.4971 370.0781,192.919 L370.0781,191.8721 C370.0781,190.169 371.2969,188.9659 373,188.9659 C373.5781,188.9659 374.1563,189.1065 374.625,189.3565 C375.0938,189.6221 375.2656,189.8096 375.3281,190.169 C375.4531,190.8409 375.7031,191.0909 376.2344,191.0909 C376.5156,191.0909 376.7969,190.9502 376.9844,190.7315 C377.1094,190.5596 377.1563,190.3877 377.1563,189.9502 L377.1563,188.5909 C377.1563,188.169 377.1406,188.0284 377.0156,187.8565 C376.8438,187.6065 376.5625,187.4502 376.2344,187.4502 C375.9219,187.4502 375.7188,187.5596 375.5,187.8252 C374.3281,187.3252 373.8906,187.2159 372.9375,187.2159 C370.2656,187.2159 368.25,189.2315 368.25,191.8565 L368.25,192.9502 Z " fill="#000000"/><text fill="#000000" font-family="sans-serif" font-size="12" lengthAdjust="spacing" textLength="77" x="393.75" y="195.742">SignupActivity</text><line style="stroke:#A80036;stroke-width:1.5;" x1="227" x2="605" y1="207.794" y2="207.794"/><rect fill="none" height="6" style="stroke:#C82930;stroke-width:1.0;" width="6" x="234" y="215.794"/><text fill="#000000" font-family="sans-serif" font-size="11" lengthAdjust="spacing" textLength="78" x="246" y="222.0129">String userType</text><rect fill="none" height="6" style="stroke:#C82930;stroke-width:1.0;" width="6" x="234" y="228.9939"/><text fill="#000000" font-family="sans-serif" font-size="11" lengthAdjust="spacing" textLength="99" x="246" y="235.2128">FirebaseAuth mAuth</text><rect fill="none" height="6" style="stroke:#C82930;stroke-width:1.0;" width="6" x="234" y="242.1938"/><text fill="#000000" font-family="sans-serif" font-size="11" lengthAdjust="spacing" textLength="157" x="246" y="248.4127">DatabaseReference mDatabase</text><rect fill="none" height="6" style="stroke:#C82930;stroke-width:1.0;" width="6" x="234" y="255.3937"/><text fill="#000000" font-family="sans-serif" font-size="11" lengthAdjust="spacing" textLength="127" x="246" y="261.6126">MyDatabase myDatabase</text><line style="stroke:#A80036;stroke-width:1.5;" x1="227" x2="605" y1="268.5936" y2="268.5936"/><polygon fill="#FFFF44" points="237,274.5936,241,278.5936,237,282.5936,233,278.5936" style="stroke:#B38D22;stroke-width:1.0;"/><text fill="#000000" font-family="sans-serif" font-size="11" lengthAdjust="spacing" textLength="109" x="246" y="282.8125">void onCreate(Bundle)</text><rect fill="#F24D5C" height="6" style="stroke:#C82930;stroke-width:1.0;" width="6" x="234" y="289.7935"/><text fill="#000000" font-family="sans-serif" font-size="11" lengthAdjust="spacing" textLength="354" x="246" y="296.0124">void userRegistration(EditText,EditText,EditText,EditText,EditText,String)</text><ellipse cx="237" cy="305.9934" fill="#84BE84" rx="3" ry="3" style="stroke:#038048;stroke-width:1.0;"/><text fill="#000000" font-family="sans-serif" font-size="11" lengthAdjust="spacing" textLength="190" x="246" y="309.2123">void createUser(String,String,UserInfo)</text><!--MD5=[f3f7ab81a26901a52ab5c86e0871186e]
class com.example.byblosMobile.Utilities--><rect codeLine="58" fill="#FEFECE" filter="url(#ffiphwp3kaqb3)" height="61.1999" id="com.example.byblosmobile.Utilities" style="stroke:#A80036;stroke-width:1.5;" width="227" x="1022.5" y="428.794"/><ellipse cx="1111.75" cy="444.794" fill="#ADD1B2" rx="11" ry="11" style="stroke:#A80036;stroke-width:1.0;"/><path d="M1106.75,445.9502 C1106.75,448.4502 1108.8906,450.2627 1111.8125,450.2627 C1113.0469,450.2627 1114.2188,449.9659 1114.9688,449.4502 C1115.5781,449.0284 1115.9063,448.6065 1115.9063,448.2002 C1115.9063,447.7315 1115.4844,447.3252 1114.9844,447.3252 C1114.75,447.3252 1114.5313,447.4034 1114.3281,447.6065 C1113.8906,448.044 1113.8906,448.044 1113.7188,448.1377 C1113.2656,448.3721 1112.625,448.5127 1111.8594,448.5127 C1109.8594,448.5127 1108.5781,447.4971 1108.5781,445.919 L1108.5781,444.8721 C1108.5781,443.169 1109.7969,441.9659 1111.5,441.9659 C1112.0781,441.9659 1112.6563,442.1065 1113.125,442.3565 C1113.5938,442.6221 1113.7656,442.8096 1113.8281,443.169 C1113.9531,443.8409 1114.2031,444.0909 1114.7344,444.0909 C1115.0156,444.0909 1115.2969,443.9502 1115.4844,443.7315 C1115.6094,443.5596 1115.6563,443.3877 1115.6563,442.9502 L1115.6563,441.5909 C1115.6563,441.169 1115.6406,441.0284 1115.5156,440.8565 C1115.3438,440.6065 1115.0625,440.4502 1114.7344,440.4502 C1114.4219,440.4502 1114.2188,440.5596 1114,440.8252 C1112.8281,440.3252 1112.3906,440.2159 1111.4375,440.2159 C1108.7656,440.2159 1106.75,442.2315 1106.75,444.8565 L1106.75,445.9502 Z " fill="#000000"/><text fill="#000000" font-family="sans-serif" font-size="12" lengthAdjust="spacing" textLength="40" x="1132.25" y="448.742">Utilities</text><line style="stroke:#A80036;stroke-width:1.5;" x1="1023.5" x2="1248.5" y1="460.794" y2="460.794"/><line style="stroke:#A80036;stroke-width:1.5;" x1="1023.5" x2="1248.5" y1="468.794" y2="468.794"/><polygon fill="#FFFF44" points="1033.5,474.794,1037.5,478.794,1033.5,482.794,1029.5,478.794" style="stroke:#B38D22;stroke-width:1.0;"/><text fill="#000000" font-family="sans-serif" font-size="11" lengthAdjust="spacing" text-decoration="underline" textLength="201" x="1042.5" y="483.0129">boolean nameChecker(EditText,EditText)</text><!--MD5=[43c977f4c28b7f6094530927ee1f4ffd]
class com.example.byblosMobile.MainActivity--><rect codeLine="61" fill="#FEFECE" filter="url(#ffiphwp3kaqb3)" height="74.3998" id="com.example.byblosmobile.MainActivity" style="stroke:#A80036;stroke-width:1.5;" width="159" x="31.5" y="208.794"/><ellipse cx="74.4" cy="224.794" fill="#ADD1B2" rx="11" ry="11" style="stroke:#A80036;stroke-width:1.0;"/><path d="M69.4,225.9502 C69.4,228.4502 71.5406,230.2627 74.4625,230.2627 C75.6969,230.2627 76.8688,229.9659 77.6188,229.4502 C78.2281,229.0284 78.5563,228.6065 78.5563,228.2002 C78.5563,227.7315 78.1344,227.3252 77.6344,227.3252 C77.4,227.3252 77.1813,227.4034 76.9781,227.6065 C76.5406,228.044 76.5406,228.044 76.3688,228.1377 C75.9156,228.3721 75.275,228.5127 74.5094,228.5127 C72.5094,228.5127 71.2281,227.4971 71.2281,225.919 L71.2281,224.8721 C71.2281,223.169 72.4469,221.9659 74.15,221.9659 C74.7281,221.9659 75.3063,222.1065 75.775,222.3565 C76.2438,222.6221 76.4156,222.8096 76.4781,223.169 C76.6031,223.8409 76.8531,224.0909 77.3844,224.0909 C77.6656,224.0909 77.9469,223.9502 78.1344,223.7315 C78.2594,223.5596 78.3063,223.3877 78.3063,222.9502 L78.3063,221.5909 C78.3063,221.169 78.2906,221.0284 78.1656,220.8565 C77.9938,220.6065 77.7125,220.4502 77.3844,220.4502 C77.0719,220.4502 76.8688,220.5596 76.65,220.8252 C75.4781,220.3252 75.0406,220.2159 74.0875,220.2159 C71.4156,220.2159 69.4,222.2315 69.4,224.8565 L69.4,225.9502 Z " fill="#000000"/><text fill="#000000" font-family="sans-serif" font-size="12" lengthAdjust="spacing" textLength="65" x="94.6" y="228.742">MainActivity</text><line style="stroke:#A80036;stroke-width:1.5;" x1="32.5" x2="189.5" y1="240.794" y2="240.794"/><rect fill="none" height="6" style="stroke:#C82930;stroke-width:1.0;" width="6" x="39.5" y="248.794"/><text fill="#000000" font-family="sans-serif" font-size="11" lengthAdjust="spacing" textLength="133" x="51.5" y="255.0129">ActivityLoginBinding binding</text><line style="stroke:#A80036;stroke-width:1.5;" x1="32.5" x2="189.5" y1="261.9939" y2="261.9939"/><polygon fill="#FFFF44" points="42.5,267.9939,46.5,271.9939,42.5,275.9939,38.5,271.9939" style="stroke:#B38D22;stroke-width:1.0;"/><text fill="#000000" font-family="sans-serif" font-size="11" lengthAdjust="spacing" textLength="109" x="51.5" y="276.2128">void onCreate(Bundle)</text><!--MD5=[6971ca23cf0557f0436b13ef124bfeb7]
class androidx.appcompat.app.AppCompatActivity--><rect fill="#FEFECE" filter="url(#ffiphwp3kaqb3)" height="48" id="androidx.appcompat.app.AppCompatActivity" style="stroke:#A80036;stroke-width:1.5;" width="135" x="504.5" y="41.294"/><ellipse cx="519.5" cy="57.294" fill="#ADD1B2" rx="11" ry="11" style="stroke:#A80036;stroke-width:1.0;"/><path d="M514.5,58.4502 C514.5,60.9502 516.6406,62.7627 519.5625,62.7627 C520.7969,62.7627 521.9688,62.4659 522.7188,61.9502 C523.3281,61.5284 523.6563,61.1065 523.6563,60.7002 C523.6563,60.2315 523.2344,59.8252 522.7344,59.8252 C522.5,59.8252 522.2813,59.9034 522.0781,60.1065 C521.6406,60.544 521.6406,60.544 521.4688,60.6377 C521.0156,60.8721 520.375,61.0127 519.6094,61.0127 C517.6094,61.0127 516.3281,59.9971 516.3281,58.419 L516.3281,57.3721 C516.3281,55.669 517.5469,54.4659 519.25,54.4659 C519.8281,54.4659 520.4063,54.6065 520.875,54.8565 C521.3438,55.1221 521.5156,55.3096 521.5781,55.669 C521.7031,56.3409 521.9531,56.5909 522.4844,56.5909 C522.7656,56.5909 523.0469,56.4502 523.2344,56.2315 C523.3594,56.0596 523.4063,55.8877 523.4063,55.4502 L523.4063,54.0909 C523.4063,53.669 523.3906,53.5284 523.2656,53.3565 C523.0938,53.1065 522.8125,52.9502 522.4844,52.9502 C522.1719,52.9502 521.9688,53.0596 521.75,53.3252 C520.5781,52.8252 520.1406,52.7159 519.1875,52.7159 C516.5156,52.7159 514.5,54.7315 514.5,57.3565 L514.5,58.4502 Z " fill="#000000"/><text fill="#000000" font-family="sans-serif" font-size="12" lengthAdjust="spacing" textLength="103" x="533.5" y="61.242">AppCompatActivity</text><line style="stroke:#A80036;stroke-width:1.5;" x1="505.5" x2="638.5" y1="73.294" y2="73.294"/><line style="stroke:#A80036;stroke-width:1.5;" x1="505.5" x2="638.5" y1="81.294" y2="81.294"/><!--MD5=[c54ba4f61d01a424743e5a1fa0f9e38e]
class Dummy--><rect codeLine="2" fill="#FEFECE" filter="url(#ffiphwp3kaqb3)" height="100.7996" id="Dummy" style="stroke:#A80036;stroke-width:1.5;" width="91" x="683.5" y="14.794"/><ellipse cx="706.15" cy="30.794" fill="#ADD1B2" rx="11" ry="11" style="stroke:#A80036;stroke-width:1.0;"/><path d="M701.15,31.9502 C701.15,34.4502 703.2906,36.2627 706.2125,36.2627 C707.4469,36.2627 708.6188,35.9659 709.3688,35.4502 C709.9781,35.0284 710.3063,34.6065 710.3063,34.2002 C710.3063,33.7315 709.8844,33.3252 709.3844,33.3252 C709.15,33.3252 708.9313,33.4034 708.7281,33.6065 C708.2906,34.044 708.2906,34.044 708.1188,34.1377 C707.6656,34.3721 707.025,34.5127 706.2594,34.5127 C704.2594,34.5127 702.9781,33.4971 702.9781,31.919 L702.9781,30.8721 C702.9781,29.169 704.1969,27.9659 705.9,27.9659 C706.4781,27.9659 707.0563,28.1065 707.525,28.3565 C707.9938,28.6221 708.1656,28.8096 708.2281,29.169 C708.3531,29.8409 708.6031,30.0909 709.1344,30.0909 C709.4156,30.0909 709.6969,29.9502 709.8844,29.7315 C710.0094,29.5596 710.0563,29.3877 710.0563,28.9502 L710.0563,27.5909 C710.0563,27.169 710.0406,27.0284 709.9156,26.8565 C709.7438,26.6065 709.4625,26.4502 709.1344,26.4502 C708.8219,26.4502 708.6188,26.5596 708.4,26.8252 C707.2281,26.3252 706.7906,26.2159 705.8375,26.2159 C703.1656,26.2159 701.15,28.2315 701.15,30.8565 L701.15,31.9502 Z " fill="#000000"/><text fill="#000000" font-family="sans-serif" font-size="12" lengthAdjust="spacing" textLength="42" x="721.85" y="34.742">Dummy</text><line style="stroke:#A80036;stroke-width:1.5;" x1="684.5" x2="773.5" y1="46.794" y2="46.794"/><rect fill="none" height="6" style="stroke:#C82930;stroke-width:1.0;" width="6" x="691.5" y="54.794"/><text fill="#000000" font-family="sans-serif" font-size="11" lengthAdjust="spacing" textLength="33" x="703.5" y="61.0129">private</text><polygon fill="none" points="694.5,65.9939,698.5,69.9939,694.5,73.9939,690.5,69.9939" style="stroke:#B38D22;stroke-width:1.0;"/><text fill="#000000" font-family="sans-serif" font-size="11" lengthAdjust="spacing" textLength="46" x="703.5" y="74.2128">protected</text><line style="stroke:#A80036;stroke-width:1.5;" x1="684.5" x2="773.5" y1="81.1938" y2="81.1938"/><polygon fill="#4177AF" points="694.5,88.1938,690.5,94.1938,698.5,94.1938" style="stroke:#1963A0;stroke-width:1.0;"/><text fill="#000000" font-family="sans-serif" font-size="11" lengthAdjust="spacing" textLength="65" x="703.5" y="95.4127">pkg method()</text><ellipse cx="694.5" cy="105.3937" fill="#84BE84" rx="3" ry="3" style="stroke:#038048;stroke-width:1.0;"/><text fill="#000000" font-family="sans-serif" font-size="11" lengthAdjust="spacing" textLength="36" x="703.5" y="108.6126">public()</text><!--MD5=[8ce37a15b5cc4d5f92bc61da132889ab]
reverse link androidx.appcompat.app.AppCompatActivity to com.example.byblosMobile.LoginActivity--><path codeLine="67" d="M625.86,99.144 C638.63,105.644 652.48,111.714 666,115.794 C737.42,137.344 765.83,100.324 833,132.794 C859.38,145.544 882.91,167.474 901.28,188.564 " fill="none" id="androidx.appcompat.app.AppCompatActivity-backto-com.example.byblosmobile.LoginActivity" style="stroke:#A80036;stroke-width:1.0;"/><polygon fill="none" points="622.33,105.184,608.1,89.484,629.01,92.884,622.33,105.184" style="stroke:#A80036;stroke-width:1.0;"/><text fill="#000000" font-family="sans-serif" font-size="13" lengthAdjust="spacing" textLength="7" x="888.6143" y="177.3859">1</text><!--MD5=[81aba8dc10df1b8894bb63e74f818895]
reverse link androidx.appcompat.app.AppCompatActivity to com.example.byblosMobile.WelcomePageActivity--><path codeLine="68" d="M605.64,104.794 C625.39,127.384 650.81,156.464 673.36,182.274 " fill="none" id="androidx.appcompat.app.AppCompatActivity-backto-com.example.byblosmobile.WelcomePageActivity" style="stroke:#A80036;stroke-width:1.0;"/><polygon fill="none" points="600.28,109.294,592.39,89.634,610.83,100.084,600.28,109.294" style="stroke:#A80036;stroke-width:1.0;"/><text fill="#000000" font-family="sans-serif" font-size="13" lengthAdjust="spacing" textLength="7" x="659.2742" y="170.7198">1</text><!--MD5=[f63a7613a386a3bd0bbbc42388afcf4d]
reverse link androidx.appcompat.app.AppCompatActivity to com.example.byblosMobile.SignupActivity--><path codeLine="69" d="M538.27,104.884 C520.22,125.534 497.45,151.594 476.46,175.614 " fill="none" id="androidx.appcompat.app.AppCompatActivity-backto-com.example.byblosmobile.SignupActivity" style="stroke:#A80036;stroke-width:1.0;"/><polygon fill="none" points="533.17,100.084,551.61,89.634,543.72,109.294,533.17,100.084" style="stroke:#A80036;stroke-width:1.0;"/><text fill="#000000" font-family="sans-serif" font-size="13" lengthAdjust="spacing" textLength="7" x="475.69" y="164.2057">1</text><!--MD5=[a5c353533ccd4a02d712e7369dde61a9]
reverse link androidx.appcompat.app.AppCompatActivity to com.example.byblosMobile.MainActivity--><path codeLine="70" d="M484.46,75.624 C392.51,86.604 254.97,106.684 209,132.794 C177.1,150.914 150.44,183.394 133.01,208.724 " fill="none" id="androidx.appcompat.app.AppCompatActivity-backto-com.example.byblosmobile.MainActivity" style="stroke:#A80036;stroke-width:1.0;"/><polygon fill="none" points="483.81,68.654,504.48,73.294,485.43,82.564,483.81,68.654" style="stroke:#A80036;stroke-width:1.0;"/><text fill="#000000" font-family="sans-serif" font-size="13" lengthAdjust="spacing" textLength="7" x="129.5385" y="197.3239">1</text><!--MD5=[7382ca5a42023a5254cd7406fd517f96]
link com.example.byblosMobile.LoginActivity to com.example.byblosMobile.Users.AccountInfo--><path codeLine="71" d="M885.21,302.914 C857.35,330.454 823.62,363.794 794.55,392.514 " fill="none" id="com.example.byblosmobile.LoginActivity-com.example.byblosmobile.Users.AccountInfo" style="stroke:#A80036;stroke-width:1.0;"/><text fill="#000000" font-family="sans-serif" font-size="13" lengthAdjust="spacing" textLength="5" x="802.5339" y="381.0487">*</text><!--MD5=[65e5358a4e1bc69d0e7676b835b3e918]
link com.example.byblosMobile.SignupActivity to com.example.byblosMobile.Users.AccountInfo--><path codeLine="72" d="M518.16,316.044 C565.26,347.974 619.81,384.954 661.49,413.214 " fill="none" id="com.example.byblosmobile.SignupActivity-com.example.byblosmobile.Users.AccountInfo" style="stroke:#A80036;stroke-width:1.0;"/><text fill="#000000" font-family="sans-serif" font-size="13" lengthAdjust="spacing" textLength="5" x="648.5107" y="404.1421">*</text><!--MD5=[a159446fda5a23cc9155a7d3169d63c5]
link com.example.byblosMobile.WelcomePageActivity to com.example.byblosMobile.Users.AccountInfo--><path codeLine="73" d="M728,309.394 C728,330.104 728,353.474 728,375.454 " fill="none" id="com.example.byblosmobile.WelcomePageActivity-com.example.byblosmobile.Users.AccountInfo" style="stroke:#A80036;stroke-width:1.0;"/><text fill="#000000" font-family="sans-serif" font-size="13" lengthAdjust="spacing" textLength="5" x="722.7695" y="364.1475">*</text><!--MD5=[d4ce3720482004655e94bc713aaf1054]
link com.example.byblosMobile.PasswordManager to com.example.byblosMobile.DB.MyDatabase--><!--MD5=[5007a983a889325bb0bd56217b1d0934]
link com.example.byblosMobile.PasswordManager to com.example.byblosMobile.Utilities--><!--MD5=[ccb448b7afacb502b4131ba02b31335f]
@startuml

class Dummy {
- private
# protected
~ pkg method()
+ public()
}

class com.example.byblosMobile.LoginActivity {
- FirebaseAuth mAuth
- DatabaseReference mDatabase
# void onCreate(Bundle)
- void signIn(EditText,EditText)
+ void login(String,String)
}
class com.example.byblosMobile.Users.AccountInfo {
# String userName
+ String getUserName()
+ String getFirstName()
+ String getLastName()
+ String getEmail()
+ String getPassword()
+ String getUserType()
+ void copy(UserInfo)
+ String toString()
}
class com.example.byblosMobile.WelcomePageActivity {
- TextView welcomeText
- String username
- String userType
- MyDatabase myDatabase
+ void updateUserInfo(UserInfo)
# void onCreate(Bundle)
}
class com.example.byblosMobile.PasswordManager {
- {static} String SECRET_KEY
- {static} String SALT
+ {static} String encrypt(String)
+ {static} String decrypt(String)
}
class com.example.byblosMobile.DB.MyDatabase {
- String dbPath
- FirebaseDatabase db
- DatabaseReference dbRef
+ DatabaseReference getDbRef()
+ void setReference(String)
+ void addUser(FirebaseUser,UserInfo)
}
class com.example.byblosMobile.SignupActivity {
- String userType
- FirebaseAuth mAuth
- DatabaseReference mDatabase
- MyDatabase myDatabase
# void onCreate(Bundle)
- void userRegistration(EditText,EditText,EditText,EditText,EditText,String)
+ void createUser(String,String,UserInfo)
}
class com.example.byblosMobile.Utilities {
# {static} boolean nameChecker(EditText,EditText)
}
class com.example.byblosMobile.MainActivity {
- ActivityLoginBinding binding
# void onCreate(Bundle)
}


androidx.appcompat.app.AppCompatActivity <|- - "1"   com.example.byblosMobile.LoginActivity
androidx.appcompat.app.AppCompatActivity <|- - "1"   com.example.byblosMobile.WelcomePageActivity
androidx.appcompat.app.AppCompatActivity <|- - "1"   com.example.byblosMobile.SignupActivity
androidx.appcompat.app.AppCompatActivity <|- - "1"   com.example.byblosMobile.MainActivity
com.example.byblosMobile.LoginActivity     - -  "*"  com.example.byblosMobile.Users.AccountInfo
com.example.byblosMobile.SignupActivity    - -  "*"  com.example.byblosMobile.Users.AccountInfo
com.example.byblosMobile.WelcomePageActivity - -  "*"  com.example.byblosMobile.Users.AccountInfo
@enduml

PlantUML version 1.2021.9(Sun Jul 25 06:13:56 EDT 2021)
(GPL source distribution)
Java Runtime: OpenJDK Runtime Environment
JVM: OpenJDK 64-Bit Server VM
Default Encoding: UTF-8
Language: en
Country: US
--></g></svg>